<svg
  width="610"
  height="132"
  viewBox="0 0 240 52"
  class="css-1j8o68f"
>
  <defs id="SvgjsDefs1043">
    <linearGradient id="SvgjsLinearGradient1048">
      <stop
        id="SvgjsStop1049"
        stop-color="#2d388a"
        offset="0"
      />
      <stop
        id="SvgjsStop1050"
        stop-color="#00aeef"
        offset="1"
      />
    </linearGradient>
    <linearGradient id="SvgjsLinearGradient12594">
      <stop
        id="SvgjsStop12595"
        stop-color="#2d388a"
        offset="0"
      />
      <stop
        id="SvgjsStop12596"
        stop-color="#00aeef"
        offset="1"
      />
    </linearGradient>
  </defs>
  <g
    id="SvgjsG1044"
    featurekey="QMusi1-0"
    transform="matrix(0.4020100502512563,0,0,0.4020100502512563,-15.678391959798995,-11.658291457286433)"
    fill="url(#SvgjsLinearGradient1048)"
  >
    <g xmlns="http://www.w3.org/2000/svg">
      <path
        fill-rule="evenodd"
        clip-rule="evenodd"
        d="M130.6,61.8c1.8,1.1,4.4,3.8,4.4,9.5c0,4.7-5.4,7.2-10.3,8.5   c-9.9,1.1-16.7,3.5-16.7,6.3c0,3.9,13.2,7,29.5,7s29.5-3.1,29.5-7c0-2.8-6.9-5.2-16.8-6.3c-5.3-1.3-11.3-3.8-11.2-8.5   c0.1-5.8,2.9-8.4,4.6-9.5C149.7,59.1,154,53,154,46c0-9.4-7.6-17-17-17c-9.4,0-17,7.6-17,17C120,53.1,124.4,59.3,130.6,61.8z    M124.6,40.7c1.2-3.2,3.8-5.7,6.9-7c0.8-0.3,1.6,0.1,2,0.8c0.3,0.8-0.1,1.6-0.8,2c-2.4,1-4.3,2.9-5.3,5.3c-0.3,0.8-1.2,1.2-1.9,0.8   C124.7,42.4,124.3,41.5,124.6,40.7z"
      />
      <path
        fill-rule="evenodd"
        clip-rule="evenodd"
        d="M132.3,74.2c0.2-0.4,0.4-0.7,0.5-1.1C100.4,73.7,75,80.1,75,88   c0,8.3,28.2,15,63,15c34.8,0,63-6.7,63-15c0-8-26.4-14.6-59.7-15c0.2,0.4,0.3,0.7,0.6,1.1c24.2,0.5,43.2,5.3,43.2,11.2   c0,6.2-21.1,11.2-47.1,11.2c-26,0-47.1-5-47.1-11.2C90.9,79.6,109,74.8,132.3,74.2z"
      />
      <path
        fill-rule="evenodd"
        clip-rule="evenodd"
        d="M238,90.5c0-12.8-43.1-23.2-96.9-23.5c-0.1,0.4-0.1,0.8-0.1,1.2   c43.3,0.3,78,8.7,78,19c0,10.5-36,19.1-80.5,19.1S58,97.8,58,87.3c0-10.1,33.2-18.4,75.1-19c0-0.4-0.1-0.8-0.1-1.3   C80.6,67.7,39,78,39,90.5c0,12.6,42.3,23,95.3,23.5c0.5,0.8,0.7,1.8,0.7,2.8c0,5.7-2.6,8.3-4.4,9.5c-6.2,2.5-10.6,8.6-10.6,15.8   c0,9.4,7.6,17,17,17s17-7.6,17-17c0-7-4.3-13.1-10.4-15.7c-1.7-1.1-4.5-3.7-4.6-9.5c0-1.1,0.3-2,0.8-2.9   C194.2,113.8,238,103.4,238,90.5z M133.5,152.8c-0.3,0.8-1.2,1.1-2,0.8c-3.2-1.3-5.7-3.8-6.9-7c-0.3-0.8,0.1-1.6,0.8-1.9   c0.8-0.3,1.6,0.1,1.9,0.8c0.9,2.4,2.9,4.4,5.3,5.3C133.5,151.2,133.8,152.1,133.5,152.8z"
      />
    </g>
  </g>
  <g
    id="SvgjsG12588"
    featurekey="UyNsn2-0"
    transform="matrix(2.2587749639705423,0,0,2.2587749639705423,96.88289029122437,0.70832789157632)"
    fill="url(#SvgjsLinearGradient12594)"
  >
    <path
      d="M4.5 5.720000000000001 l5.96 9.58 l0.04 0 l0 -9.58 l2.94 0 l0 14.28 l-3.14 0 l-5.94 -9.56 l-0.04 0 l0 9.56 l-2.94 0 l0 -14.28 l3.12 0 z M19.7335 5.720000000000001 l-0.000019531 8.94 c0 1.0533 0.23666 1.8233 0.71 2.31 s1.2167 0.73 2.23 0.73 c1.0933 0 1.86 -0.24334 2.3 -0.73 s0.66 -1.2567 0.66 -2.31 l0 -8.94 l3.14 0 l0 8.94 c0 1.7867 -0.51 3.18 -1.53 4.18 s-2.5434 1.5 -4.57 1.5 c-2.0666 0 -3.5966 -0.5 -4.59 -1.5 s-1.49 -2.3934 -1.49 -4.18 l0 -8.94 l3.14 0 z M21.9735 1.8999999999999986 l0 2.34 l-2.7 0 l0 -2.34 l2.7 0 z M26.0935 1.8999999999999986 l0 2.34 l-2.7 0 l0 -2.34 l2.7 0 z M33.747 5.720000000000001 l2.26 9.72 l0.04 0 l2.48 -9.72 l2.94 0 l2.44 9.84 l0.04 0 l2.34 -9.84 l3.08 0 l-3.84 14.28 l-3.12 0 l-2.42 -9.72 l-0.04 0 l-2.38 9.72 l-3.18 0 l-3.78 -14.28 l3.14 0 z M58.0205 5.720000000000001 l5.34 14.28 l-3.26 0 l-1.08 -3.18 l-5.34 0 l-1.12 3.18 l-3.18 0 l5.42 -14.28 l3.22 0 z M56.3605 9.24 l-1.86 5.24 l3.7 0 l-1.8 -5.24 l-0.04 0 z"
    />
  </g>
</svg>
